<svg width="255" height="263" viewBox="0 0 255 263" fill="none" xmlns="http://www.w3.org/2000/svg">
<path d="M143.5 24.5V259M143.5 24.5L195.5 4M143.5 24.5H100M143.5 259L168.5 248.5V228.5M143.5 259H110.5V228.5M223.5 226.5L168.5 186.5V228.5M223.5 226.5L250.5 215.5C232.5 201.5 136 139.5 182.5 125C229 110.5 232 28.4999 195.5 4M223.5 226.5L168.5 228.5M195.5 4H152L100 24.5M100 24.5L4 259H37.5M37.5 259L74 175H110.5V228.5M37.5 259L110.5 228.5M86 139.5H113V128M86 139.5L113 81V128M86 139.5L113 128M168.5 50V94C171.582 101.094 196.5 88.5 195 69C193.5 49.5 182.5 42 168.5 50Z" stroke="#E0E8FA" stroke-width="8" stroke-linejoin="round"/>
</svg>
